<?xml version="1.0" encoding="utf-8"?>
<!-- Generator: Adobe Illustrator 19.1.0, SVG Export Plug-In . SVG Version: 6.00 Build 0)  -->
<svg version="1.1" xmlns="http://www.w3.org/2000/svg" xmlns:xlink="http://www.w3.org/1999/xlink" x="0px" y="0px"
	 viewBox="0 0 500 500" style="enable-background:new 0 0 500 500;" xml:space="preserve">
<style type="text/css">
	.st0{fill:#FFFFFF;}
	.st1{fill:none;}
	.st2{opacity:0.5;fill:#33CCFF;}
	.st3{opacity:0.5;fill:#CC66FF;}
	.st4{opacity:0.5;fill:#009933;}
	.st5{opacity:0.5;fill:#FF9933;}
</style>
<g id="Layer_2">
	<circle class="st0" cx="250" cy="250" r="250"/>
</g>
<g id="Layer_1">
	<circle class="st1" cx="250" cy="250" r="250"/>
	<circle class="st1" cx="250" cy="250" r="25"/>
	<path class="st2" d="M426.8,73.2L250,250L73.2,73.2C73.2,73.2,140.7,0,250,0S426.8,73.2,426.8,73.2z"/>
	<polyline class="st1" points="426.8,426.8 250,250 73.2,426.8 	"/>
	<path class="st3" d="M73.2,426.8L250,250l176.8,176.8c0,0-67.5,73.2-176.8,73.2S73.2,426.8,73.2,426.8z"/>
	<path class="st4" d="M426.8,426.8L250,250L426.8,73.2c0,0,73.2,67.5,73.2,176.8S426.8,426.8,426.8,426.8z"/>
	<path class="st5" d="M73.2,73.2L250,250L73.2,426.8c0,0-73.2-67.5-73.2-176.8C0,140.7,73.2,73.2,73.2,73.2z"/>
</g>
</svg>
